<svg width="104" height="24" viewBox="0 0 104 24" fill="none" xmlns="http://www.w3.org/2000/svg">
<path d="M22.675 0H1.325C0.593 0 0 0.593 0 1.325V22.676C0 23.407 0.593 24 1.325 24H12.82V14.706H9.692V11.084H12.82V8.413C12.82 5.313 14.713 3.625 17.479 3.625C18.804 3.625 19.942 3.724 20.274 3.768V7.008L18.356 7.009C16.852 7.009 16.561 7.724 16.561 8.772V11.085H20.148L19.681 14.707H16.561V24H22.677C23.407 24 24 23.407 24 22.675V1.325C24 0.593 23.407 0 22.675 0Z" fill="white"/>
<path d="M52 0C45.373 0 40 5.372 40 12C40 17.084 43.163 21.426 47.627 23.174C47.522 22.225 47.427 20.769 47.669 19.733C47.887 18.796 49.076 13.768 49.076 13.768C49.076 13.768 48.717 13.049 48.717 11.986C48.717 10.318 49.684 9.072 50.888 9.072C51.911 9.072 52.406 9.841 52.406 10.762C52.406 11.791 51.751 13.33 51.412 14.757C51.129 15.951 52.011 16.926 53.189 16.926C55.322 16.926 56.961 14.677 56.961 11.431C56.961 8.558 54.897 6.549 51.949 6.549C48.535 6.549 46.531 9.11 46.531 11.756C46.531 12.787 46.928 13.894 47.424 14.494C47.522 14.613 47.536 14.718 47.507 14.839L47.174 16.199C47.121 16.419 47 16.466 46.772 16.36C45.273 15.662 44.336 13.471 44.336 11.711C44.336 7.926 47.086 4.449 52.265 4.449C56.428 4.449 59.663 7.416 59.663 11.38C59.663 15.516 57.056 18.844 53.436 18.844C52.22 18.844 51.077 18.213 50.686 17.466L49.938 20.319C49.667 21.362 48.936 22.669 48.446 23.465C49.57 23.812 50.763 24 52 24C58.627 24 64 18.627 64 12C64 5.372 58.627 0 52 0Z" fill="white"/>
<path d="M104 4.55699C103.117 4.94899 102.168 5.21299 101.172 5.33199C102.189 4.72299 102.97 3.75799 103.337 2.60799C102.386 3.17199 101.332 3.58199 100.21 3.80299C99.313 2.84599 98.032 2.24799 96.616 2.24799C93.437 2.24799 91.101 5.21399 91.819 8.29299C87.728 8.08799 84.1 6.12799 81.671 3.14899C80.381 5.36199 81.002 8.25699 83.194 9.72299C82.388 9.69699 81.628 9.47599 80.965 9.10699C80.911 11.388 82.546 13.522 84.914 13.997C84.221 14.185 83.462 14.229 82.69 14.081C83.316 16.037 85.134 17.46 87.29 17.5C85.22 19.123 82.612 19.848 80 19.54C82.179 20.937 84.768 21.752 87.548 21.752C96.69 21.752 101.855 14.031 101.543 7.10599C102.505 6.41099 103.34 5.54399 104 4.55699Z" fill="white"/>
</svg>
