<svg width="358" height="100" viewBox="0 0 358 100" fill="none" xmlns="http://www.w3.org/2000/svg">
<circle cx="100" cy="100" r="100" fill="#2C6269"/>
<path fill-rule="evenodd" clip-rule="evenodd" d="M258 200C313.228 200 358 155.228 358 100C358 44.7715 313.228 0 258 0C202.772 0 158 44.7715 158 100C158 155.228 202.772 200 258 200ZM258 133C276.225 133 291 118.225 291 100C291 81.7746 276.225 67 258 67C239.775 67 225 81.7746 225 100C225 118.225 239.775 133 258 133Z" fill="#012F34"/>
<rect x="358" y="43" width="43" height="43" transform="rotate(180 358 43)" fill="#79C8C7"/>
<path fill-rule="evenodd" clip-rule="evenodd" d="M233.513 200C288.742 200 333.513 155.228 333.513 100C333.513 44.7715 288.742 0 233.513 0C178.285 0 133.513 44.7715 133.513 100C133.513 155.228 178.285 200 233.513 200ZM233.513 133C251.739 133 266.513 118.225 266.513 100C266.513 81.7746 251.739 67 233.513 67C215.288 67 200.513 81.7746 200.513 100C200.513 118.225 215.288 133 233.513 133Z" fill="#F67E7E"/>
</svg>
